<svg data-v-0dd9719b="" version="1.0" xmlns="http://www.w3.org/2000/svg" xmlns:xlink="http://www.w3.org/1999/xlink" width="100%" height="100%" viewBox="0 0 340.000000 250.000000" preserveAspectRatio="xMidYMid meet" color-interpolation-filters="sRGB" style="margin: auto;"> <rect data-v-0dd9719b="" x="0" y="0" width="100%" height="100%" fill="#fff" fill-opacity="1" class="background"></rect> <rect data-v-0dd9719b="" x="0" y="0" width="100%" height="100%" fill="url(#watermark)" fill-opacity="1" class="watermarklayer"></rect> <g data-v-0dd9719b="" fill="#333" class="icon-text-wrapper icon-svg-group iconsvg" transform="translate(72.125,80.40069961547852)"><g class="iconsvg-imagesvg" transform="translate(0,3.7028427124023438)"><g><rect fill="#333" fill-opacity="0" stroke-width="2" x="0" y="0" width="60" height="81.79290037624735" class="image-rect"></rect> <svg x="0" y="0" width="60" height="81.79290037624735" filtersec="colorsb3377323462" class="image-svg-svg primary" style="overflow: visible;"><svg xmlns="http://www.w3.org/2000/svg" viewBox="0.0015106201171875 0 83.56697082519531 113.91999816894531"><g fill-rule="evenodd"><path d="M62.42 32l-5.69-5.69L32.78 50.3c-16.3 16.3-7.26 36 6.52 49.73l5.7 5.69 23.94-23.94C85.24 65.47 76.2 45.83 62.42 32zM28.68 46.2l28.05-28.05 9.79 9.79c16 16 25.53 38.92 6.52 57.94L45 113.92l-9.79-9.79c-16.01-16-25.54-38.92-6.53-57.93z" fill="#0b75d2"></path><path d="M53.34 23l-5.69-5.68-23.94 23.9C7.4 57.52 16.44 77.17 30.23 91l5.69 5.69 23.94-24C76.17 56.4 67.13 36.75 53.34 23zM19.61 37.12l28-28 9.79 9.78C73.45 34.87 83 57.79 64 76.8l-28 28.05-9.79-9.79C10.12 79.05.59 56.14 19.61 37.12z" fill="#00a9ff"></path><path d="M44.27 13.89L38.58 8.2l-23.95 24c-16.3 16.3-7.26 35.95 6.52 49.73l5.69 5.69 24-23.94c16.3-16.31 7.26-35.95-6.52-49.74zM10.53 28.05L38.58 0l9.79 9.79c16 16 25.53 38.92 6.52 57.94l-28 28L17.05 86c-16-16-25.53-38.94-6.52-57.95z" fill="#52cdff"></path></g></svg></svg> <!----></g></g> <g transform="translate(67,0)"><g data-gra="path-name" fill-rule="" class="tp-name iconsvg-namesvg"><g transform="scale(1)"><g><path d="M15.43 0.46L15.43 0.46 14.62 0.46Q12.82 0.46 11.21 0.65 9.6 0.84 7.78 1.19L7.78 1.19Q8.15-5.19 8.36-10.81 8.56-16.42 8.56-21.7L8.56-21.7Q8.56-28.46 8.21-35.05L8.21-35.05 0.9-34.52Q0.87-35.51 0.84-36.34 0.81-37.16 0.75-37.93 0.7-38.7 0.61-39.5 0.52-40.3 0.41-41.28L0.41-41.28 3.92-41.28Q6.24-41.28 8.46-41.31 10.68-41.34 12.9-41.4 15.11-41.46 17.39-41.54 19.67-41.63 22.11-41.78L22.11-41.78Q21.96-40.3 21.92-39.27 21.87-38.24 21.87-37.13L21.87-37.13 21.87-35.6 14.74-35.42Q14.65-32.64 14.64-29.95 14.62-27.27 14.62-24.54L14.62-24.54Q14.62-18.22 14.82-12.01 15.03-5.8 15.43 0.46ZM50.74 0.78L42.3 0.52Q41.69-0.32 41.38-1.36 41.08-2.41 40.94-3.35 40.79-4.29 40.78-4.99 40.76-5.69 40.76-5.83L40.76-5.83Q40.76-6.76 40.69-8.05 40.62-9.34 40.35-10.72 40.09-12.1 39.62-13.45 39.14-14.8 38.31-15.87 37.48-16.94 36.28-17.6 35.07-18.25 33.39-18.25L33.39-18.25Q33.16-18.25 32.91-18.22 32.67-18.19 32.43-18.19L32.43-18.19 32.43-0.12 24.43 0.06Q24.6-0.96 24.73-2.34 24.86-3.71 24.95-5.27 25.04-6.82 25.09-8.5 25.15-10.18 25.18-11.81 25.21-13.43 25.23-14.96 25.24-16.48 25.24-17.7L25.24-17.7Q25.24-18.63 25.23-20.42 25.21-22.22 25.17-24.47 25.12-26.72 25.08-29.2 25.04-31.68 24.98-33.96 24.92-36.24 24.85-38.11 24.78-39.98 24.72-40.99L24.72-40.99Q26.31-41.31 28.14-41.47 29.97-41.63 31.54-41.72L31.54-41.72Q33.36-41.83 35.16-41.83L35.16-41.83Q38.06-41.95 40.62-41.36 43.17-40.76 45.1-39.35 47.03-37.95 48.17-35.73 49.32-33.51 49.38-30.43L49.38-30.43Q48.91-28.26 47.9-26.4L47.9-26.4Q47.46-25.62 46.87-24.79 46.27-23.96 45.48-23.24 44.68-22.51 43.66-21.92 42.65-21.32 41.4-20.98L41.4-20.98Q43.26-20.25 44.42-19.28 45.58-18.31 46.24-17.1 46.91-15.9 47.22-14.52 47.52-13.14 47.65-11.62 47.78-10.1 47.87-8.49 47.96-6.88 48.19-5.22L48.19-5.22Q48.42-3.97 48.77-2.84L48.77-2.84Q49.09-1.86 49.57-0.86 50.04 0.15 50.74 0.78L50.74 0.78ZM42.01-30.06L42.01-30.06Q41.98-31.91 41.2-33.39L41.2-33.39Q40.85-34 40.31-34.61 39.77-35.22 38.98-35.68 38.18-36.15 37.06-36.44 35.95-36.73 34.47-36.73L34.47-36.73Q33.33-36.73 31.97-36.41L31.97-36.41 32.09-23.3Q32.61-23.21 33.13-23.17 33.65-23.12 34.09-23.12L34.09-23.12Q35.48-23.12 36.55-23.41 37.63-23.7 38.44-24.2 39.25-24.69 39.83-25.3 40.41-25.91 40.82-26.57L40.82-26.57Q41.75-28.11 42.01-30.06ZM53.41-3.45L53.41-3.45Q53.41-5.69 53.31-7.92 53.21-10.15 53.09-12.4 52.97-14.65 52.87-16.93 52.77-19.21 52.77-21.56L52.77-21.56Q52.77-24.02 52.93-26.56 53.09-29.1 53.56-31.46 54.02-33.83 54.83-35.9 55.64-37.98 56.95-39.51 58.25-41.05 60.14-41.95 62.03-42.85 64.58-42.85L64.58-42.85Q67.02-42.85 68.81-42.08 70.61-41.31 71.88-39.98 73.14-38.64 73.94-36.84 74.73-35.05 75.18-32.96 75.63-30.87 75.81-28.61 75.98-26.34 75.98-24.11L75.98-24.11Q75.98-23.53 75.97-23.09 75.95-22.66 75.94-22.15 75.92-21.64 75.88-20.95 75.84-20.25 75.78-19.13 75.72-18.02 75.65-16.39 75.57-14.77 75.49-12.39 75.4-10.01 75.28-6.77 75.17-3.54 75.05 0.78L75.05 0.78 66.38 0.46Q66.87-2.84 67.26-6.16 67.65-9.49 67.92-12.36L67.92-12.36Q65.68-12.53 63.77-12.53L63.77-12.53Q62.78-12.53 61.91-12.5 61.04-12.47 60.37-12.42L60.37-12.42Q60.46-10.91 60.58-9.23 60.69-7.54 60.84-5.83 60.98-4.12 61.16-2.45 61.33-0.78 61.56 0.73L61.56 0.73 53.35 0.96Q53.41-0.12 53.41-1.23 53.41-2.35 53.41-3.45ZM60.02-18.54L60.02-18.54Q60.89-18.48 61.74-18.48 62.58-18.48 63.39-18.48L63.39-18.48Q66.49-18.48 68.38-18.65L68.38-18.65Q68.55-20.71 68.74-22.8 68.93-24.89 68.93-27.27L68.93-27.27Q68.93-32.29 67.9-34.92 66.87-37.54 64.87-37.54L64.87-37.54Q63.77-37.54 62.84-36.76 61.91-35.97 61.23-34.33 60.55-32.7 60.16-30.2 59.76-27.71 59.76-24.31L59.76-24.31Q59.76-23.12 59.84-21.77 59.91-20.42 60.02-18.54ZM104.99-19.9L104.99-19.9Q104.99-15.17 104.11-11.74 103.22-8.3 101.83-5.87 100.44-3.45 98.7-1.94 96.96-0.44 95.22 0.39 93.47 1.22 91.94 1.52 90.4 1.83 89.41 1.83L89.41 1.83Q89.18 1.83 88.38 1.8 87.59 1.77 86.42 1.67 85.26 1.57 83.8 1.36 82.33 1.16 80.74 0.78L80.74 0.78Q80.77-4.96 80.81-9.18 80.85-13.4 80.88-16.45 80.91-19.5 80.94-21.56 80.97-23.62 80.99-25.09 81-26.57 81.01-27.63 81.03-28.69 81.03-29.71L81.03-29.71Q81.03-31.3 81-33 80.97-34.7 80.88-36.29 80.8-37.89 80.65-39.28 80.51-40.67 80.27-41.66L80.27-41.66Q82.54-41.81 84.41-41.85 86.28-41.89 87.64-41.89L87.64-41.89Q91.07-41.89 93.68-41.07 96.29-40.24 98.22-38.77 100.15-37.31 101.44-35.26 102.73-33.22 103.53-30.78 104.32-28.34 104.66-25.57 104.99-22.8 104.99-19.9ZM97.45-20.8L97.45-20.8Q97.45-25.94 96.97-29.17 96.49-32.41 95.43-34.2 94.37-36 92.68-36.66 90.98-37.31 88.57-37.31L88.57-37.31 87.7-37.31 88.05-3.22Q88.63-2.99 89.14-2.92 89.65-2.84 90.14-2.84L90.14-2.84Q92.08-2.84 93.46-3.76 94.84-4.67 95.72-6.77 96.61-8.88 97.03-12.32 97.45-15.75 97.45-20.8ZM129.16 0.67L129.16 0.67Q126.81 0.61 124.79 0.59 122.78 0.58 120.98 0.58L120.98 0.58Q117.47 0.58 115.1 0.65 112.74 0.73 111.26 0.78L111.26 0.78Q109.52 0.87 108.5 0.96L108.5 0.96Q108.71-0.99 108.87-2.96 109.02-4.93 109.14-6.85 109.26-8.76 109.34-10.53 109.43-12.3 109.49-13.87L109.49-13.87Q109.6-17.52 109.63-20.86L109.63-20.86Q109.6-24.34 109.49-28L109.49-28Q109.43-29.56 109.34-31.29 109.26-33.01 109.14-34.81 109.02-36.61 108.87-38.43 108.71-40.24 108.5-41.95L108.5-41.95Q112.13-41.81 114.99-41.73 117.84-41.66 120.08-41.66L120.08-41.66Q122.28-41.66 123.88-41.7 125.47-41.75 126.49-41.81L126.49-41.81Q127.68-41.86 128.46-41.95L128.46-41.95Q128.46-41.98 128.46-41.43 128.46-40.88 128.49-39.98 128.52-39.08 128.59-37.95 128.67-36.82 128.81-35.65L128.81-35.65Q125.45-35.97 122.92-36.08 120.4-36.18 118.6-36.18L118.6-36.18Q117.84-36.18 117.28-36.18 116.71-36.18 116.22-36.12L116.22-36.12Q116.16-32.9 116.13-30.07 116.1-27.24 116.1-24.72L116.1-24.72Q118.13-24.78 119.73-24.88 121.33-24.98 122.46-25.12L122.46-25.12Q123.76-25.27 124.78-25.44L124.78-25.44Q124.75-25.24 124.75-24.98L124.75-24.98Q124.72-24.75 124.72-24.43 124.72-24.11 124.72-23.7L124.72-23.7Q124.72-22.77 124.78-21.48 124.84-20.19 125.01-18.71L125.01-18.71Q121.88-19.12 119.61-19.22 117.35-19.32 116.1-19.32L116.1-19.32Q116.1-16.3 116.13-13.94 116.16-11.58 116.21-9.78 116.25-7.98 116.29-6.7 116.34-5.43 116.39-4.58L116.39-4.58Q119.35-4.64 121.67-4.87 123.99-5.11 125.59-5.35 127.19-5.6 128.03-5.8 128.87-6.01 128.87-6.06L128.87-6.06Q128.84-5.92 128.84-5.74L128.84-5.74Q128.81-5.6 128.81-5.37 128.81-5.14 128.81-4.82L128.81-4.82Q128.81-4 128.87-2.64 128.93-1.28 129.16 0.67Z" transform="translate(-0.4099999964237213, 42.849998474121094)"></path></g> <!----> <!----> <!----> <!----> <!----> <!----> <g data-gra="path-name-1" fill="#333" transform="translate(0,47.68000411987305)"><g transform="scale(1.00093)"><path d="M14.29 0.43L14.29 0.43 13.54 0.43Q11.87 0.43 10.38 0.6 8.89 0.78 7.2 1.1L7.2 1.1Q7.55-4.81 7.74-10.01 7.93-15.21 7.93-20.1L7.93-20.1Q7.93-26.35 7.6-32.45L7.6-32.45 0.83-31.97Q0.81-32.88 0.78-33.65 0.75-34.41 0.7-35.13 0.64-35.84 0.56-36.58 0.48-37.32 0.38-38.23L0.38-38.23 3.63-38.23Q5.78-38.23 7.83-38.26 9.89-38.28 11.94-38.34 14-38.39 16.11-38.47 18.21-38.55 20.47-38.69L20.47-38.69Q20.34-37.32 20.3-36.36 20.26-35.41 20.26-34.39L20.26-34.39 20.26-32.96 13.65-32.8Q13.57-30.22 13.55-27.74 13.54-25.25 13.54-22.73L13.54-22.73Q13.54-16.87 13.73-11.12 13.92-5.37 14.29 0.43ZM30.36 0.27L30.36 0.27 23.27 0.99Q23.32-0.81 23.36-2.75 23.4-4.7 23.43-6.64 23.45-8.57 23.48-10.44 23.51-12.3 23.51-13.97L23.51-13.97Q23.53-17.89 23.53-21.68L23.53-21.68Q23.51-25.07 23.45-28.24L23.45-28.24Q23.43-29.58 23.39-31 23.35-32.43 23.29-33.8 23.24-35.17 23.17-36.39 23.1-37.61 23-38.58L23-38.58 29.77-38.9Q29.71-37.23 29.67-35.48 29.63-33.72 29.61-31.98 29.58-30.25 29.56-28.64 29.55-27.03 29.55-25.63L29.55-25.63Q29.55-18.62 29.73-12.26 29.9-5.91 30.36 0.27ZM46.64 0.43L46.64 0.43 45.89 0.43Q44.22 0.43 42.73 0.6 41.24 0.78 39.55 1.1L39.55 1.1Q39.89-4.81 40.08-10.01 40.27-15.21 40.27-20.1L40.27-20.1Q40.27-26.35 39.95-32.45L39.95-32.45 33.18-31.97Q33.15-32.88 33.12-33.65 33.1-34.41 33.04-35.13 32.99-35.84 32.91-36.58 32.83-37.32 32.72-38.23L32.72-38.23 35.97-38.23Q38.12-38.23 40.18-38.26 42.23-38.28 44.29-38.34 46.34-38.39 48.45-38.47 50.56-38.55 52.82-38.69L52.82-38.69Q52.68-37.32 52.64-36.36 52.6-35.41 52.6-34.39L52.6-34.39 52.6-32.96 45.99-32.8Q45.91-30.22 45.9-27.74 45.89-25.25 45.89-22.73L45.89-22.73Q45.89-16.87 46.07-11.12 46.26-5.37 46.64 0.43ZM55.4-3.2L55.4-3.2Q55.4-5.27 55.3-7.33 55.21-9.4 55.1-11.48 54.99-13.57 54.9-15.68 54.8-17.78 54.8-19.96L54.8-19.96Q54.8-22.24 54.95-24.59 55.1-26.95 55.53-29.14 55.96-31.32 56.71-33.25 57.46-35.17 58.67-36.59 59.88-38.01 61.63-38.85 63.37-39.68 65.74-39.68L65.74-39.68Q68-39.68 69.66-38.97 71.33-38.26 72.5-37.02 73.66-35.78 74.4-34.12 75.14-32.45 75.56-30.52 75.97-28.58 76.14-26.49 76.3-24.39 76.3-22.32L76.3-22.32Q76.3-21.79 76.28-21.38 76.27-20.98 76.26-20.51 76.24-20.04 76.2-19.4 76.16-18.75 76.11-17.72 76.05-16.68 75.99-15.18 75.92-13.67 75.84-11.47 75.76-9.27 75.65-6.27 75.54-3.28 75.44 0.73L75.44 0.73 67.4 0.43Q67.86-2.63 68.22-5.71 68.59-8.78 68.83-11.44L68.83-11.44Q66.76-11.61 64.99-11.61L64.99-11.61Q64.07-11.61 63.27-11.58 62.46-11.55 61.84-11.5L61.84-11.5Q61.92-10.1 62.03-8.54 62.14-6.98 62.27-5.4 62.41-3.81 62.57-2.27 62.73-0.73 62.94 0.67L62.94 0.67 55.34 0.89Q55.4-0.11 55.4-1.14 55.4-2.18 55.4-3.2ZM61.52-17.17L61.52-17.17Q62.33-17.11 63.11-17.11 63.89-17.11 64.64-17.11L64.64-17.11Q67.51-17.11 69.26-17.27L69.26-17.27Q69.42-19.18 69.59-21.12 69.77-23.05 69.77-25.25L69.77-25.25Q69.77-29.9 68.81-32.33 67.86-34.76 66.01-34.76L66.01-34.76Q64.99-34.76 64.13-34.04 63.27-33.31 62.64-31.79 62-30.28 61.64-27.97 61.28-25.66 61.28-22.51L61.28-22.51Q61.28-21.41 61.35-20.16 61.41-18.91 61.52-17.17ZM96.61-39.22L103.75-39.44Q103.62-37.26 103.52-34.91 103.43-32.56 103.36-30.2 103.3-27.83 103.26-25.55 103.22-23.27 103.19-21.25 103.16-19.24 103.16-17.57 103.16-15.9 103.16-14.75L103.16-14.75Q103.16-13.24 103.16-11.42 103.16-9.59 103.19-7.66 103.22-5.72 103.26-3.77 103.3-1.83 103.38-0.11L103.38-0.11Q102.22-0.16 101.27-0.16 100.31-0.16 99.54-0.16L99.54-0.16Q98.14-0.16 97.22-0.13 96.31-0.11 95.77-0.05L95.77-0.05Q95.13 0 94.78 0.05L94.78 0.05Q94.7-0.51 94.44-1.71 94.19-2.9 93.8-4.54 93.41-6.18 92.9-8.17 92.39-10.15 91.81-12.3 91.23-14.45 90.62-16.67 90-18.89 89.39-21 88.79-23.1 88.21-25 87.63-26.89 87.15-28.4L87.15-28.4Q86.94-24.96 86.83-22.04 86.72-19.13 86.67-16.95L86.67-16.95Q86.59-14.43 86.59-12.33L86.59-12.33Q86.59-10.53 86.67-8.52L86.67-8.52Q86.72-6.8 86.87-4.59 87.02-2.39 87.31-0.11L87.31-0.11Q85.24-0.19 83.91-0.2 82.58-0.21 81.8-0.21L81.8-0.21 80.49-0.21Q80.62-5.02 80.7-8.38 80.78-11.74 80.82-14.01 80.86-16.28 80.88-17.65 80.89-19.02 80.89-19.87 80.89-20.71 80.88-21.22 80.86-21.73 80.86-22.27L80.86-22.27Q80.86-23.61 80.85-25.47 80.84-27.32 80.78-29.46 80.73-31.59 80.62-33.9 80.51-36.21 80.33-38.47L80.33-38.47Q83.07-38.47 84.84-38.52 86.61-38.58 87.66-38.63L87.66-38.63Q88.9-38.71 89.57-38.79L89.57-38.79Q89.7-37.93 90.12-36.11 90.54-34.28 91.11-31.88 91.69-29.47 92.42-26.68 93.14-23.88 93.91-21.05 94.67-18.21 95.45-15.54 96.23-12.87 96.93-10.72L96.93-10.72Q97.06-13 97.13-15.38 97.2-17.76 97.24-19.83 97.28-21.9 97.28-23.44 97.28-24.98 97.28-25.58L97.28-25.58Q97.25-28.02 97.17-30.46L97.17-30.46Q97.14-31.51 97.09-32.64 97.04-33.77 96.97-34.91 96.9-36.05 96.81-37.15 96.71-38.26 96.61-39.22L96.61-39.22ZM128.95-9.24L128.95-9.24Q128.68-6.21 127.57-4.2 126.45-2.2 124.84-1.01 123.23 0.19 121.28 0.67 119.33 1.16 117.4 1.16L117.4 1.16Q115.39 1.16 113.52 0.6 111.65 0.05 110.23-1.05 108.8-2.15 107.96-3.81 107.11-5.48 107.11-7.71L107.11-7.71Q107.11-9.43 107.63-10.58 108.16-11.74 108.94-12.44 109.72-13.14 110.6-13.42 111.49-13.7 112.24-13.7L112.24-13.7Q113.02-13.7 113.85-13.46 114.69-13.22 115.39-12.65 116.08-12.09 116.53-11.14 116.97-10.18 116.97-8.76L116.97-8.76Q116.97-8.73 116.93-8.26 116.89-7.79 116.62-7.19 116.35-6.58 115.8-6 115.25-5.43 114.2-5.18L114.2-5.18Q114.96-4.24 115.96-3.77 116.97-3.3 117.67-3.3L117.67-3.3Q118.37-3.3 119.27-3.55 120.17-3.79 120.96-4.37 121.75-4.94 122.3-5.9 122.85-6.85 122.85-8.3L122.85-8.3Q122.85-9.99 122.28-11.31 121.7-12.63 120.8-13.63 119.9-14.64 118.78-15.41 117.67-16.17 116.62-16.79L116.62-16.79Q115.92-17.19 114.96-17.74 113.99-18.3 112.94-19.06 111.89-19.83 110.87-20.81 109.85-21.79 109.03-23.04 108.21-24.29 107.72-25.82 107.22-27.35 107.22-29.2L107.22-29.2Q107.22-31.97 108.19-34.05 109.15-36.13 110.7-37.53 112.24-38.93 114.2-39.63 116.16-40.32 118.18-40.32L118.18-40.32Q120.19-40.32 122.02-39.77 123.85-39.22 125.23-38.19 126.62-37.15 127.43-35.72 128.25-34.28 128.25-32.51L128.25-32.51Q128.25-30.71 127.66-29.66 127.07-28.61 126.25-28.07 125.43-27.54 124.59-27.39 123.74-27.24 123.23-27.24L123.23-27.24Q122.59-27.24 121.89-27.48 121.19-27.72 120.61-28.21 120.03-28.69 119.66-29.39 119.28-30.09 119.28-31.03L119.28-31.03Q119.31-31.62 119.42-32.21L119.42-32.21Q119.52-32.72 119.74-33.31 119.95-33.9 120.38-34.44L120.38-34.44Q119.95-34.82 119.55-35.03 119.15-35.25 118.8-35.35L118.8-35.35Q118.39-35.46 118.02-35.49L118.02-35.49Q117.27-35.49 116.5-35.22 115.73-34.95 115.1-34.41 114.47-33.88 114.07-33.06 113.67-32.24 113.67-31.14L113.67-31.14Q113.67-29.85 114.07-28.81 114.47-27.78 115.33-26.81 116.19-25.84 117.52-24.85 118.85-23.86 120.7-22.67L120.7-22.67Q122.88-21.3 124.45-19.93 126.02-18.56 127.03-17.11 128.04-15.66 128.52-14.06 129.01-12.47 129.01-10.61L129.01-10.61Q129.01-10.29 129.01-9.95 129.01-9.62 128.95-9.24Z" transform="translate(-0.3800000250339508, 40.31999969482422)"></path></g></g></g></g> <!----></g></g><defs v-gra="od"></defs></svg>